<svg width="25" height="24" viewBox="0 0 25 24" fill="none" xmlns="http://www.w3.org/2000/svg">
<path d="M18.0556 2H6.94444C5.7657 2 4.63524 2.46825 3.80175 3.30175C2.96825 4.13524 2.5 5.2657 2.5 6.44444V17.5556C2.5 18.7343 2.96825 19.8648 3.80175 20.6983C4.63524 21.5317 5.7657 22 6.94444 22H18.0556C19.2343 22 20.3648 21.5317 21.1983 20.6983C22.0317 19.8648 22.5 18.7343 22.5 17.5556V6.44444C22.5 5.2657 22.0317 4.13524 21.1983 3.30175C20.3648 2.46825 19.2343 2 18.0556 2Z" fill="#B1FF5C"/>
<path d="M12.5 16C13.5609 16 14.5783 15.5786 15.3284 14.8284C16.0786 14.0783 16.5 13.0609 16.5 12C16.5 10.9391 16.0786 9.92172 15.3284 9.17157C14.5783 8.42143 13.5609 8 12.5 8C11.4391 8 10.4217 8.42143 9.67157 9.17157C8.92143 9.92172 8.5 10.9391 8.5 12C8.5 13.0609 8.92143 14.0783 9.67157 14.8284C10.4217 15.5786 11.4391 16 12.5 16Z" fill="#B1FF5C" stroke="#141810" stroke-width="2" stroke-linejoin="round"/>
<path d="M18.5 7C18.7652 7 19.0196 6.89464 19.2071 6.70711C19.3946 6.51957 19.5 6.26522 19.5 6C19.5 5.73478 19.3946 5.48043 19.2071 5.29289C19.0196 5.10536 18.7652 5 18.5 5C18.2348 5 17.9804 5.10536 17.7929 5.29289C17.6054 5.48043 17.5 5.73478 17.5 6C17.5 6.26522 17.6054 6.51957 17.7929 6.70711C17.9804 6.89464 18.2348 7 18.5 7Z" fill="#141810"/>
</svg>
