<svg width="36" height="36" viewBox="0 0 36 36" fill="none" xmlns="http://www.w3.org/2000/svg">
<g clip-path="url(#clip0_814_12936)">
<path d="M18 35C27.3888 35 35 27.3888 35 18C35 8.61113 27.3888 1 18 1C8.61116 1 1 8.61113 1 18C1 27.3888 8.61116 35 18 35Z" fill="#080807" stroke="#B1FF5C" stroke-width="2"/>
<path d="M2.70312 23.9379C4.94026 24.835 6.55073 24.835 7.53444 23.9379C9.01004 22.5923 7.73674 18.5083 9.80334 17.382C11.8699 16.2556 15.0184 21.2484 17.9613 19.6056C20.9041 17.9627 17.684 13.5821 19.7262 11.8062C21.7685 10.0303 24.424 12.0332 24.8882 9.06369C25.3524 6.09425 22.7224 7.38213 22.2178 4.57605C21.8812 2.70535 21.8812 1.72167 22.2178 1.625" stroke="#B1FF5C" stroke-width="2" stroke-linecap="round"/>
<path d="M22.2652 34.4484C20.6722 32.8181 20.0987 31.3027 20.5448 29.9021C21.2139 27.8012 22.3177 27.9254 22.7989 26.6264C23.2801 25.3274 21.9207 23.4772 24.9371 21.8956C26.948 20.8412 29.713 22.0629 33.2318 25.5607" stroke="#B1FF5C" stroke-width="2" stroke-linecap="round"/>
<path d="M3.12587 22.4815C2.93082 22.4815 3.45406 22.7552 3.52089 22.8221C3.80341 23.1046 4.23536 23.0332 4.60379 23.0332C4.91184 23.0332 5.22213 23.0218 5.53004 23.0332C5.64637 23.0375 5.74193 23.1833 5.85015 23.1524C6.05967 23.0925 6.24184 22.1973 6.3269 22.0252C6.49129 21.6926 6.61976 21.4788 6.61976 21.1058C6.61976 20.8228 6.58998 20.5222 6.6504 20.2442C6.70481 19.994 6.67823 19.7324 6.7117 19.478C6.75424 19.1547 6.89101 18.8518 7.00115 18.545C7.20307 17.9825 7.62752 17.4611 8.02616 17.0262C8.41868 16.598 8.97683 16.5971 9.55517 16.5971C10.2931 16.5971 10.9131 16.6875 11.6256 16.8559C12.3068 17.0169 12.7793 17.3212 13.3692 17.6698C14.5335 18.3578 15.5709 18.7425 16.9209 18.7425C17.39 18.7425 17.4079 18.6819 17.4079 18.2385C17.4079 17.6769 17.514 17.0101 17.3466 16.4745C17.2525 16.1732 17.2949 15.8633 17.2819 15.5517C17.2619 15.0711 17.224 14.6008 17.224 14.118C17.224 13.3046 17.3272 12.5779 17.7757 11.9113C17.9809 11.6063 18.1701 11.2369 18.4772 11.0191C18.809 10.7839 19.1924 10.6376 19.5567 10.4641C19.9972 10.2543 20.4186 9.98104 20.8711 9.80002C21.2038 9.66697 21.5455 9.67768 21.8825 9.5957C22.2702 9.50142 23.6005 9.49786 23.2651 8.78523C23.1061 8.44735 22.7741 8.18852 22.4648 7.98838C21.9669 7.66616 21.5907 7.39787 21.3172 6.85099C21.0856 6.38765 21.1426 5.861 21.0891 5.35264C21.0428 4.91284 21.0244 4.44315 21.0244 4.00071C21.0244 3.2125 20.1952 2.80544 19.4647 2.80544C18.9305 2.80544 18.3901 2.74414 17.8506 2.74414C17.4179 2.74414 17.1236 2.86715 16.7064 2.94165C15.953 3.07618 15.2414 3.3904 14.4963 3.57164C14.024 3.68653 13.6418 3.78462 13.1921 3.98369C12.5666 4.26054 11.9439 4.64753 11.343 4.97805C10.6033 5.38485 9.9161 5.90665 9.15674 6.27549C8.84155 6.42858 8.52245 6.6324 8.22367 6.81694C7.80473 7.0757 7.50086 7.5345 7.13737 7.86579C6.38515 8.55135 5.88621 9.35273 5.21335 10.0929C4.85456 10.4875 4.58652 11.0042 4.2905 11.4482C3.89047 12.0482 3.61798 12.7221 3.3404 13.3859C3.03555 14.1149 2.65805 14.9018 2.56058 15.6913C2.45353 16.5584 2.39031 17.4106 2.39031 18.2862C2.39031 18.8214 2.2012 22.6202 2.75809 22.5428C3.02823 22.5053 3.21424 22.0137 3.32338 21.8073C3.61067 21.2639 4.02972 20.8022 4.31093 20.251C4.5739 19.7356 4.59921 19.1155 4.72298 18.5586C4.88565 17.8265 4.95505 17.0857 5.07373 16.3451C5.47703 13.8285 6.54738 11.4157 8.46545 9.67743C9.46371 8.77276 10.645 8.18291 11.7108 7.37201C12.4943 6.7758 13.3678 6.32033 14.2682 5.93155C15.0273 5.60375 15.8445 5.52253 16.6417 5.34923C16.9488 5.28247 17.2644 5.35368 17.5714 5.27772C17.9328 5.18828 18.3256 5.04658 18.6985 5.01551C18.9807 4.99199 19.9306 4.72756 19.921 5.14832C19.9068 5.77643 19.3875 5.96996 18.879 6.095C17.9009 6.33553 16.9181 6.6768 16.0049 7.09958C14.7286 7.69047 13.3905 8.32545 12.2045 9.07809C11.2175 9.70446 10.749 10.5324 10.0421 11.4244C9.17878 12.5138 7.95961 13.3889 7.32126 14.6424C7.12565 15.0265 6.99992 15.4489 6.87856 15.8615C6.71802 16.4074 7.09352 16.073 7.40299 15.8752C8.44193 15.2109 9.51391 14.6048 10.5597 13.9511C11.7399 13.2136 12.5568 12.249 13.5326 11.2779C14.9938 9.82398 16.5199 8.80837 18.4499 8.12459C19.2978 7.82422 20.049 7.40301 20.9324 7.18812C20.9581 7.18189 21.2807 7.07147 21.2321 7.18812C21.0936 7.52045 20.6061 7.84232 20.3399 8.03605C18.3947 9.45197 16.1935 10.4488 14.057 11.5299C13.4761 11.8239 12.9138 12.2459 12.4701 12.7218C11.9261 13.3054 11.7658 13.8879 11.6801 14.6595C11.6485 14.9439 11.5325 15.5922 11.8436 15.7866C12.0216 15.8979 12.2988 15.8981 12.4974 15.9092C13.0374 15.9396 13.5812 15.9228 14.1217 15.9228C14.5932 15.9228 14.7125 15.9865 14.9799 16.42C15.0944 16.6057 15.2489 16.8588 15.2489 17.0875C15.2489 17.1634 14.7855 16.4166 14.7722 16.3928C14.4082 15.7448 14.0801 15.0859 13.9413 14.3496C13.8527 13.8797 13.8403 13.3942 13.7914 12.9193C13.7615 12.6287 13.5877 12.2113 13.9481 12.0884C14.478 11.9078 15.3984 11.6912 15.9232 11.976C16.1769 12.1138 15.9984 12.5812 15.9368 12.7695C15.7633 13.2997 15.8142 13.8258 15.8142 14.3904" stroke="#B1FF5C" stroke-width="3" stroke-linecap="round"/>
<path d="M22.5547 33.3919C22.803 33.3608 21.9911 31.7283 21.9553 31.4781C21.8516 30.752 22.0629 30.0833 22.5853 29.5609C23.0755 29.0707 23.473 28.3064 23.7806 27.6913C24.2514 26.7498 24.0557 25.7223 24.2437 24.7287C24.5277 23.2277 26.1513 23.045 27.4379 23.0975C28.4699 23.1396 29.4481 24.0034 30.3393 24.4563C30.553 24.5648 32.301 25.4925 31.7151 25.975C31.139 26.4494 30.6461 26.9686 30.0328 27.4189C29.6709 27.6847 29.2185 27.9608 28.8988 28.2805C28.544 28.6353 28.072 28.7867 27.6831 29.1012C26.9392 29.7026 26.1767 30.2534 25.4935 30.9366C25.1826 31.2475 24.7986 31.4283 24.4378 31.6688C24.2238 31.8115 23.7806 32.1943 23.7806 31.7573C23.7806 31.0499 23.778 30.4185 24.0871 29.7618C24.3278 29.2501 24.6572 28.8209 24.9963 28.3724C25.3792 27.866 25.6889 27.3114 26.0043 26.7617C26.2954 26.2542 26.4164 25.7223 26.6275 25.185C26.7709 24.8198 26.8944 24.768 27.2881 24.7355C27.9071 24.6844 28.5391 24.6224 29.1202 24.8921C29.3642 25.0054 29.2431 25.5979 29.2326 25.8252C29.2044 26.4296 28.8474 26.7122 28.371 27.0171C28.0988 27.1913 27.8102 27.3519 27.5197 27.4938C27.379 27.5626 27.1922 27.5897 27.0906 27.6913" stroke="#B1FF5C" stroke-width="3" stroke-linecap="round"/>
<path d="M35 18C35 27.3888 27.3888 35 18 35C8.61116 35 1 27.3888 1 18C1 8.61113 8.61115 1 18 1C27.3888 1 35 8.61113 35 18Z" stroke="#B1FF5C" stroke-width="2"/>
</g>
<defs>
<clipPath id="clip0_814_12936">
<rect width="36" height="36" fill="white"/>
</clipPath>
</defs>
</svg>
