<svg width="25" height="24" viewBox="0 0 25 24" fill="none" xmlns="http://www.w3.org/2000/svg">
<path d="M23.04 6.40501C22.7865 5.45785 22.0421 4.71353 21.0949 4.45999C19.38 4 12.5 4 12.5 4C12.5 4 5.62002 4 3.905 4.45999C2.95785 4.71353 2.21353 5.45785 1.95999 6.40501C1.5 8.12002 1.5 11.7004 1.5 11.7004C1.5 11.7004 1.5 15.2807 1.95999 16.9957C2.21353 17.9429 2.95785 18.6872 3.905 18.9407C5.62002 19.4007 12.5 19.4007 12.5 19.4007C12.5 19.4007 19.38 19.4007 21.0949 18.9407C22.0421 18.6872 22.7865 17.9429 23.04 16.9957C23.5 15.2807 23.5 11.7004 23.5 11.7004C23.5 11.7004 23.4982 8.12002 23.04 6.40501Z" fill="#B1FF5C"/>
<path d="M10.2983 15.0006L16.0139 11.701L10.2983 8.40137V15.0006Z" fill="#141810"/>
</svg>
