<svg width="164" height="47" viewBox="0 0 164 47" fill="none" xmlns="http://www.w3.org/2000/svg">
<g clip-path="url(#clip0_2068_47614)">
<path d="M39.0121 23.4568L32.8582 29.6799C31.933 30.6155 31.933 32.1604 32.8582 33.0961L38.3881 38.6882C38.7324 39.0364 38.7324 39.6239 38.3881 39.972L31.8039 46.6304C31.4596 46.9785 30.8787 46.9785 30.5344 46.6304L24.1869 40.2114C23.6274 39.6456 23.3047 38.8841 23.3047 38.079V23.4568L31.1584 15.5146L38.3666 8.20349C38.7109 7.85535 39.2918 7.85535 39.6361 8.20349L46.2203 14.8618C46.5646 15.21 46.5646 15.7975 46.2203 16.1456L39.0121 23.4568Z" fill="#080807"/>
<path d="M23.3027 8.81251V23.4347L15.449 31.3768L8.24083 38.688C7.89655 39.0361 7.31559 39.0361 6.97132 38.688L0.387111 32.0296C0.0428381 31.6815 0.0428381 31.094 0.387111 30.7459L7.59532 23.4347L13.7492 17.2116C14.6744 16.2759 14.6744 14.731 13.7492 13.7954L8.21929 8.20324C7.87502 7.85509 7.87502 7.26761 8.21929 6.91947L14.8035 0.261111C15.1478 -0.087037 15.7287 -0.087037 16.073 0.261111L22.4205 6.68009C22.98 7.24583 23.3027 8.00742 23.3027 8.81251Z" fill="#080807"/>
<path d="M66.4964 37.985C63.5937 37.985 61.1057 36.9628 59.0582 34.9186C57.0108 32.8743 56 30.3844 56 27.3966C56 24.435 57.0108 21.919 59.0582 19.8747C61.1057 17.8304 63.5678 16.8345 66.4964 16.8345C69.425 16.8345 71.9131 17.8566 73.9346 19.8747C75.9561 21.919 76.9669 24.4088 76.9669 27.3966C76.9669 30.3582 75.9561 32.8743 73.9346 34.9186C71.9131 36.9628 69.4509 37.985 66.4964 37.985ZM62.0905 31.9569C63.2827 33.1625 64.76 33.7654 66.4964 33.7654C68.2328 33.7654 69.7101 33.1625 70.9023 31.9569C72.0945 30.7513 72.6906 29.2312 72.6906 27.4228C72.6906 25.6144 72.0945 24.0943 70.9023 22.8887C69.7101 21.6831 68.2328 21.0803 66.4964 21.0803C64.76 21.0803 63.2827 21.6831 62.0905 22.8887C60.8983 24.0943 60.3022 25.6144 60.3022 27.4228C60.3022 29.2312 60.8983 30.7513 62.0905 31.9569Z" fill="#080807"/>
<path d="M89.5882 16.8608C91.8689 16.8608 93.709 17.5947 95.1085 19.0624C96.5081 20.5301 97.2078 22.5482 97.2078 25.1166V37.461H92.9056V25.5622C92.9056 24.0683 92.5168 22.9151 91.7134 22.1026C90.91 21.2901 89.8215 20.897 88.4479 20.897C86.9447 20.897 85.7266 21.3688 84.7935 22.3123C83.8605 23.2558 83.3941 24.7235 83.3941 26.6629V37.4348H79.0918V17.3588H83.3941V19.9273C84.7158 17.883 86.7632 16.8608 89.5882 16.8608Z" fill="#080807"/>
<path d="M103.844 29.2576C104.155 30.7777 104.88 31.9571 106.021 32.7696C107.161 33.5821 108.56 34.0014 110.193 34.0014C112.474 34.0014 114.184 33.1627 115.325 31.5116L118.85 33.6083C116.88 36.5175 113.977 37.9851 110.141 37.9851C106.902 37.9851 104.31 36.9892 102.314 34.9974C100.319 33.0055 99.334 30.4894 99.334 27.423C99.334 24.4352 100.319 21.9191 102.263 19.9011C104.232 17.883 106.746 16.8608 109.804 16.8608C112.707 16.8608 115.117 17.883 116.983 19.9535C118.849 22.024 119.783 24.5138 119.783 27.4754C119.783 27.921 119.731 28.5238 119.627 29.2838H103.844V29.2576ZM103.818 25.7194H115.506C115.221 24.0945 114.547 22.8627 113.511 22.024C112.474 21.1853 111.23 20.766 109.83 20.766C108.249 20.766 106.928 21.2115 105.865 22.1026C104.777 22.9937 104.103 24.1993 103.818 25.7194Z" fill="#080807"/>
<path d="M133.207 16.8608C135.928 16.8608 138.261 17.8829 140.205 19.901C142.148 21.9453 143.107 24.4351 143.107 27.4229C143.107 30.3583 142.148 32.8744 140.205 34.9187C138.261 36.9629 135.928 37.9851 133.207 37.9851C130.175 37.9851 127.868 36.8581 126.261 34.5779V37.4609H121.959V9.33887H126.261V20.2155C127.868 17.9878 130.175 16.8608 133.207 16.8608ZM128.049 32.0095C129.242 33.2413 130.745 33.8441 132.533 33.8441C134.321 33.8441 135.825 33.2413 137.017 32.0095C138.209 30.8039 138.805 29.2576 138.805 27.3967C138.805 25.5359 138.209 24.0158 137.017 22.784C135.825 21.5784 134.321 20.9494 132.533 20.9494C130.719 20.9494 129.242 21.5522 128.049 22.784C126.857 24.0158 126.261 25.5359 126.261 27.3967C126.261 29.2576 126.857 30.8039 128.049 32.0095Z" fill="#080807"/>
<path d="M149.301 13.5322C148.757 14.0826 148.109 14.3447 147.383 14.3447C146.632 14.3447 146.01 14.0826 145.466 13.5322C144.921 12.9818 144.662 12.3266 144.662 11.5927C144.662 10.8327 144.921 10.2037 145.466 9.65329C145.984 9.1029 146.632 8.84082 147.409 8.84082C148.187 8.84082 148.835 9.1029 149.353 9.65329C149.871 10.2037 150.157 10.8589 150.157 11.5927C150.131 12.3266 149.846 12.9818 149.301 13.5322ZM145.232 37.4608V17.3849H149.535V37.4608H145.232Z" fill="#080807"/>
<path d="M163.038 21.5521H158.114V31.197C158.114 32.0356 158.295 32.6122 158.658 32.9791C159.021 33.3461 159.565 33.5295 160.316 33.582C161.042 33.6344 161.949 33.6082 163.038 33.5558V37.4608C159.746 37.854 157.388 37.5657 155.962 36.596C154.537 35.6262 153.811 33.8178 153.811 31.197V21.5521H151.66V17.3849H153.811V13.0342L158.114 11.75V17.3849H163.038V21.5521V21.5521Z" fill="#080807"/>
</g>
<defs>
<clipPath id="clip0_2068_47614">
<rect width="164" height="47" fill="white"/>
</clipPath>
</defs>
</svg>
