<svg width="164" height="47" viewBox="0 0 164 47" fill="none" xmlns="http://www.w3.org/2000/svg">
<g clip-path="url(#clip0_1818_47547)">
<path d="M39.0102 23.4565L32.8563 29.6797C31.931 30.6153 31.931 32.1602 32.8563 33.0958L38.3862 38.688C38.7304 39.0361 38.7304 39.6236 38.3862 39.9718L31.802 46.6301C31.4577 46.9783 30.8767 46.9783 30.5325 46.6301L24.1849 40.2111C23.6255 39.6454 23.3027 38.8838 23.3027 38.0787V23.4565L31.1565 15.5144L38.3647 8.20325C38.7089 7.8551 39.2899 7.8551 39.6341 8.20325L46.2184 14.8616C46.5626 15.2098 46.5626 15.7972 46.2184 16.1454L39.0102 23.4565Z" fill="#8DF31E"/>
<path d="M23.3027 8.81251V23.4347L15.449 31.3768L8.24083 38.688C7.89655 39.0361 7.31559 39.0361 6.97132 38.688L0.387111 32.0296C0.0428381 31.6815 0.0428381 31.094 0.387111 30.7459L7.59532 23.4347L13.7492 17.2116C14.6744 16.2759 14.6744 14.731 13.7492 13.7954L8.21929 8.20324C7.87502 7.85509 7.87502 7.26761 8.21929 6.91947L14.8035 0.261111C15.1478 -0.087037 15.7287 -0.087037 16.073 0.261111L22.4205 6.68009C22.98 7.24583 23.3027 8.00742 23.3027 8.81251Z" fill="#8DF31E"/>
<path d="M66.4964 37.9851C63.5937 37.9851 61.1057 36.9629 59.0582 34.9186C57.0108 32.8744 56 30.3845 56 27.3967C56 24.4351 57.0108 21.9191 59.0582 19.8748C61.1057 17.8305 63.5678 16.8346 66.4964 16.8346C69.425 16.8346 71.9131 17.8567 73.9346 19.8748C75.9561 21.9191 76.9669 24.4089 76.9669 27.3967C76.9669 30.3583 75.9561 32.8744 73.9346 34.9186C71.9131 36.9629 69.4509 37.9851 66.4964 37.9851ZM62.0905 31.957C63.2827 33.1626 64.76 33.7655 66.4964 33.7655C68.2328 33.7655 69.7101 33.1626 70.9023 31.957C72.0945 30.7514 72.6906 29.2313 72.6906 27.4229C72.6906 25.6145 72.0945 24.0944 70.9023 22.8888C69.7101 21.6832 68.2328 21.0804 66.4964 21.0804C64.76 21.0804 63.2827 21.6832 62.0905 22.8888C60.8983 24.0944 60.3022 25.6145 60.3022 27.4229C60.3022 29.2313 60.8983 30.7514 62.0905 31.957Z" fill="white"/>
<path d="M89.5882 16.8608C91.8689 16.8608 93.709 17.5946 95.1085 19.0623C96.5081 20.53 97.2078 22.5481 97.2078 25.1166V37.4609H92.9056V25.5621C92.9056 24.0682 92.5168 22.915 91.7134 22.1025C90.91 21.2901 89.8215 20.8969 88.4479 20.8969C86.9447 20.8969 85.7266 21.3687 84.7935 22.3122C83.8605 23.2557 83.3941 24.7234 83.3941 26.6629V37.4347H79.0918V17.3588H83.3941V19.9272C84.7158 17.8829 86.7632 16.8608 89.5882 16.8608Z" fill="white"/>
<path d="M103.843 29.2576C104.154 30.7777 104.879 31.9571 106.02 32.7695C107.16 33.582 108.559 34.0014 110.192 34.0014C112.473 34.0014 114.183 33.1627 115.324 31.5115L118.849 33.6082C116.879 36.5174 113.976 37.9851 110.14 37.9851C106.901 37.9851 104.309 36.9892 102.313 34.9973C100.318 33.0054 99.333 30.4894 99.333 27.4229C99.333 24.4351 100.318 21.9191 102.262 19.901C104.231 17.8829 106.745 16.8608 109.803 16.8608C112.706 16.8608 115.116 17.8829 116.982 19.9534C118.849 22.0239 119.782 24.5138 119.782 27.4753C119.782 27.9209 119.73 28.5237 119.626 29.2838H103.843V29.2576ZM103.817 25.7194H115.505C115.22 24.0944 114.546 22.8626 113.51 22.0239C112.473 21.1853 111.229 20.7659 109.829 20.7659C108.248 20.7659 106.927 21.2114 105.864 22.1025C104.776 22.9936 104.102 24.1993 103.817 25.7194Z" fill="white"/>
<path d="M133.207 16.8608C135.928 16.8608 138.261 17.8829 140.205 19.901C142.148 21.9453 143.107 24.4351 143.107 27.4229C143.107 30.3583 142.148 32.8743 140.205 34.9186C138.261 36.9629 135.928 37.985 133.207 37.985C130.175 37.985 127.868 36.8581 126.261 34.5779V37.4609H121.959V9.33884H126.261V20.2155C127.868 17.9877 130.175 16.8608 133.207 16.8608ZM128.049 32.0095C129.242 33.2413 130.745 33.8441 132.533 33.8441C134.321 33.8441 135.825 33.2413 137.017 32.0095C138.209 30.8039 138.805 29.2575 138.805 27.3967C138.805 25.5359 138.209 24.0158 137.017 22.7839C135.825 21.5783 134.321 20.9493 132.533 20.9493C130.719 20.9493 129.242 21.5521 128.049 22.7839C126.857 24.0158 126.261 25.5359 126.261 27.3967C126.261 29.2575 126.857 30.8039 128.049 32.0095Z" fill="white"/>
<path d="M149.301 13.5323C148.757 14.0827 148.109 14.3447 147.383 14.3447C146.632 14.3447 146.01 14.0827 145.466 13.5323C144.921 12.9819 144.662 12.3267 144.662 11.5928C144.662 10.8328 144.921 10.2037 145.466 9.65335C145.984 9.10296 146.632 8.84088 147.409 8.84088C148.187 8.84088 148.835 9.10296 149.353 9.65335C149.871 10.2037 150.157 10.859 150.157 11.5928C150.131 12.3267 149.846 12.9819 149.301 13.5323ZM145.232 37.4609V17.3849H149.535V37.4609H145.232Z" fill="white"/>
<path d="M163.038 21.5522H158.114V31.197C158.114 32.0357 158.295 32.6123 158.658 32.9792C159.021 33.3461 159.565 33.5296 160.316 33.582C161.042 33.6344 161.949 33.6082 163.038 33.5558V37.4609C159.746 37.854 157.388 37.5658 155.962 36.596C154.537 35.6263 153.811 33.8179 153.811 31.197V21.5522H151.66V17.385H153.811V13.0343L158.114 11.7501V17.385H163.038V21.5522V21.5522Z" fill="white"/>
</g>
<defs>
<clipPath id="clip0_1818_47547">
<rect width="164" height="47" fill="white"/>
</clipPath>
</defs>
</svg>
